<svg width="16" height="17" viewBox="0 0 16 17" fill="none" xmlns="http://www.w3.org/2000/svg">
<g id="Instagram" clip-path="url(#clip0_196_2296)">
<g id="Group 169">
<path id="Vector" d="M4.44843 1.23483H11.5516C12.5361 1.23602 13.48 1.62765 14.1762 2.32383C14.8724 3.02007 15.2641 3.96406 15.2652 4.94869V12.0513C15.2641 13.0359 14.8724 13.9799 14.1762 14.6762C13.4799 15.3724 12.5359 15.7641 11.5513 15.7652H4.44869C3.46406 15.7641 2.52007 15.3724 1.82383 14.6762C1.12765 13.98 0.736015 13.0361 0.734833 12.0516V4.94843C0.736015 3.96389 1.12765 3.02001 1.82383 2.32383C2.52001 1.62765 3.46389 1.23602 4.44843 1.23483Z" stroke="black" stroke-width="0.968689"/>
<circle id="Ellipse 10" cx="8.02147" cy="8.74498" r="3.15456" stroke="black" stroke-width="0.968689"/>
</g>
</g>
<defs>
<clipPath id="clip0_196_2296">
<rect width="15.499" height="15.499" fill="white" transform="translate(0.250488 0.750488)"/>
</clipPath>
</defs>
</svg>
