<svg width="125" height="33" viewBox="0 0 125 33" fill="none" xmlns="http://www.w3.org/2000/svg">
<g id="LayerZero Blockchain 1" clip-path="url(#clip0_272_458)">
<path id="Vector" d="M9.76134 -0.0443032C8.50691 -0.0376509 7.26756 0.215138 6.11027 0.699095C4.95465 1.18472 3.90455 1.89152 3.0236 2.78127C2.14098 3.67102 1.44427 4.72542 0.970296 5.88459C0.496327 7.04375 0.255155 8.28442 0.261855 9.53672V12.7016H7.98102V8.11644C7.98102 7.90191 8.02289 7.68737 8.10663 7.48946C8.1887 7.28989 8.30928 7.11028 8.46337 6.95727C8.61577 6.80427 8.79665 6.68453 8.99595 6.60137C9.19526 6.51822 9.40796 6.47664 9.62401 6.47664H9.90202C10.1181 6.47664 10.3308 6.51822 10.5301 6.60137C10.7294 6.68453 10.9103 6.80427 11.0627 6.95727C11.2151 7.11028 11.3357 7.28989 11.4194 7.48946C11.5015 7.68903 11.545 7.90191 11.545 8.11644V20.4083C12.5583 20.4083 13.5631 20.2087 14.4994 19.8212C15.4356 19.4337 16.2864 18.8666 17.0032 18.1515C17.72 17.4364 18.2878 16.5865 18.6763 15.6519C19.0649 14.7172 19.2642 13.7144 19.2642 12.7032V9.53838C19.2692 7.00218 18.2693 4.56576 16.4823 2.76464C15.6047 1.87489 14.5596 1.16975 13.4057 0.687452C12.2484 0.201832 11.0107 -0.0459663 9.76134 -0.0443032Z" fill="white" fill-opacity="0.5"/>
<path id="Vector_2" d="M9.90023 26.6282H9.62221C9.40616 26.6282 9.19346 26.5849 8.99416 26.5035C8.79486 26.4203 8.61398 26.3006 8.46157 26.1475C8.30916 25.9945 8.18858 25.8149 8.10484 25.6154C8.02277 25.4158 7.97923 25.2029 7.97923 24.9884V12.6965C6.96597 12.6965 5.96109 12.8961 5.02488 13.2836C4.08866 13.6711 3.23786 14.2382 2.52105 14.9533C1.80423 15.6685 1.23647 16.5183 0.847917 17.453C0.459363 18.3876 0.260061 19.3904 0.260061 20.4016V23.5215C0.246663 24.7755 0.48281 26.0195 0.955105 27.1803C1.4274 28.3428 2.12412 29.3989 3.00841 30.2903C3.89103 31.1817 4.94281 31.8885 6.10177 32.3708C7.26074 32.8531 8.50344 33.1026 9.75954 33.1026C11.0156 33.1026 12.2583 32.8548 13.4173 32.3708C14.5763 31.8885 15.6281 31.18 16.5107 30.2903C17.3933 29.3989 18.0917 28.3428 18.564 27.1803C19.0363 26.0178 19.2724 24.7738 19.259 23.5215V20.4016H11.5399V24.9867C11.5399 25.2013 11.498 25.4158 11.4142 25.6137C11.3322 25.8133 11.2099 25.9929 11.0575 26.1459C10.9051 26.2989 10.7242 26.4186 10.5249 26.5018C10.329 26.5866 10.1163 26.6282 9.90023 26.6282ZM32.4548 9.68469H29.75V23.3868H37.6902V20.8041H32.4565C32.4548 20.8041 32.4548 9.68469 32.4548 9.68469ZM46.3523 14.7604C45.9705 14.2864 45.4814 13.9106 44.9271 13.6628C44.371 13.415 43.7647 13.3019 43.1568 13.3318C42.522 13.3268 41.8923 13.4582 41.3128 13.716C40.7333 13.9738 40.2158 14.3546 39.7938 14.8286C38.8911 15.8381 38.392 17.1453 38.392 18.499C38.392 19.8528 38.8911 21.16 39.7938 22.1695C40.2142 22.6451 40.7317 23.0243 41.3128 23.2821C41.8923 23.5398 42.522 23.6712 43.1568 23.6662C44.5301 23.6662 45.5953 23.1906 46.3523 22.2376V23.3918H48.8813V13.6046H46.3523V14.7604ZM45.5786 20.4848C45.324 20.7392 45.0192 20.9404 44.6825 21.0718C44.3476 21.2049 43.9875 21.2681 43.6274 21.2564C43.2673 21.2681 42.9106 21.2049 42.5756 21.0718C42.2423 20.9388 41.9392 20.7375 41.6863 20.4831C41.1939 19.9376 40.9209 19.2308 40.9209 18.4957C40.9209 17.7623 41.1939 17.0538 41.6863 16.5083C41.9392 16.2539 42.2423 16.0526 42.5756 15.9196C42.9089 15.7865 43.2673 15.7233 43.6274 15.735C43.9875 15.725 44.3476 15.7882 44.6825 15.9196C45.0175 16.0526 45.3223 16.2522 45.5786 16.5067C46.076 17.0488 46.3523 17.7573 46.3523 18.494C46.3523 19.2341 46.0776 19.9426 45.5786 20.4848ZM55.3979 20.1754L52.8405 13.5979H50.0754L54.0933 23.0725C53.9258 23.638 53.5942 24.1419 53.142 24.5211C52.6663 24.842 52.0969 24.995 51.5241 24.9518V27.3017C52.6395 27.4048 53.7566 27.1022 54.6677 26.4486C55.5085 25.8149 56.1851 24.7988 56.6942 23.4018L60.2682 13.5979H57.5634L55.3979 20.1754ZM65.7432 13.3285C65.0532 13.3036 64.3665 13.4233 63.725 13.6778C63.0836 13.9322 62.5024 14.3164 62.0184 14.807C61.0822 15.8115 60.5647 17.1336 60.568 18.5057C60.5714 19.8777 61.0973 21.1966 62.0385 22.1961C63.0183 23.174 64.3196 23.6646 65.9408 23.6646C67.8216 23.6646 69.2469 22.9661 70.2149 21.5707L68.1767 20.3966C67.9171 20.7259 67.5821 20.9853 67.2003 21.1566C66.8184 21.3279 66.3997 21.4028 65.981 21.3762C64.477 21.3762 63.5559 20.7625 63.2159 19.5368H70.6068C70.6704 19.1942 70.7023 18.8466 70.7039 18.499C70.7408 17.1353 70.2383 15.8132 69.3021 14.8186C68.8483 14.3313 68.2973 13.9472 67.6843 13.6911C67.0713 13.4349 66.4081 13.3102 65.7432 13.3285ZM63.1757 17.576C63.2879 17.0006 63.5994 16.4834 64.0583 16.1175C64.544 15.7583 65.1403 15.5753 65.7449 15.5986C66.2975 15.592 66.8385 15.7633 67.284 16.0876C67.7596 16.4534 68.0779 16.984 68.1767 17.5744C68.175 17.576 63.1757 17.576 63.1757 17.576ZM74.9981 15.2826V13.5996H72.4692V23.3868H74.9981V18.7086C74.9981 17.7689 75.3013 17.0971 75.9092 16.6929C76.5172 16.2888 77.2541 16.1208 77.9776 16.2239V13.4067C77.3412 13.3984 76.7148 13.5613 76.1638 13.8757C75.6195 14.1883 75.2058 14.6889 74.9981 15.2826ZM90.3075 11.8035V9.68469H81.3121V12.2691H86.8809L81.1681 21.2298V23.3868H90.4181V20.8041H84.5948C84.5948 20.8024 90.3075 11.8035 90.3075 11.8035ZM96.3871 13.3285C95.697 13.3036 95.0104 13.4233 94.3689 13.6778C93.7275 13.9322 93.1463 14.3164 92.6623 14.807C91.7261 15.8115 91.2069 17.1336 91.2119 18.5057C91.2153 19.8777 91.7411 21.1966 92.6824 22.1961C93.6621 23.174 94.9635 23.6646 96.583 23.6646C98.4655 23.6646 99.8891 22.9661 100.857 21.5707L98.8189 20.3966C98.5593 20.7242 98.2243 20.9853 97.8424 21.1566C97.4606 21.3279 97.0419 21.4028 96.6232 21.3762C95.1192 21.3762 94.1981 20.7625 93.8581 19.5368H101.249C101.313 19.1942 101.344 18.8466 101.346 18.499C101.385 17.1353 100.881 15.8132 99.9443 14.8186C99.4921 14.3313 98.9394 13.9472 98.3265 13.6911C97.7135 13.4349 97.0519 13.3102 96.3871 13.3285ZM93.8196 17.576C93.9318 17.0006 94.2433 16.4834 94.7022 16.1175C95.1879 15.7583 95.7841 15.5753 96.3887 15.5986C96.9414 15.592 97.4824 15.7633 97.9279 16.0876C98.4035 16.4534 98.7217 16.984 98.8189 17.5744L93.8196 17.576ZM105.64 15.2826V13.5996H103.111V23.3868H105.64V18.7086C105.64 17.7689 105.943 17.0971 106.551 16.6929C107.159 16.2888 107.896 16.1208 108.62 16.2239V13.4067C107.985 13.3984 107.357 13.5613 106.806 13.8757C106.262 14.1883 105.848 14.6889 105.64 15.2826ZM114.388 13.3268C113.2 13.3401 112.055 13.7626 111.145 14.5226C110.236 15.2826 109.616 16.3354 109.395 17.4995C109.174 18.6637 109.362 19.8677 109.93 20.9088C110.497 21.9499 111.407 22.7632 112.505 23.2089C113.604 23.6563 114.825 23.7078 115.959 23.3586C117.093 23.0093 118.069 22.2776 118.726 21.2913C119.382 20.3035 119.674 19.1194 119.555 17.9419C119.434 16.7628 118.91 15.6618 118.071 14.8253C117.592 14.3363 117.017 13.9522 116.383 13.6944C115.753 13.4366 115.073 13.3119 114.388 13.3268ZM116.289 20.4332C116.041 20.6827 115.744 20.8806 115.416 21.0103C115.09 21.1417 114.74 21.2049 114.386 21.1949C114.034 21.2049 113.684 21.1417 113.36 21.0119C113.035 20.8806 112.738 20.6843 112.492 20.4332C112.006 19.9043 111.737 19.2125 111.737 18.4957C111.737 17.7789 112.006 17.0871 112.492 16.5582C112.738 16.3071 113.033 16.1108 113.36 15.9795C113.684 15.8481 114.034 15.7849 114.386 15.7949C114.738 15.7849 115.088 15.8481 115.416 15.9795C115.744 16.1108 116.041 16.3071 116.289 16.5566C116.779 17.0821 117.054 17.7756 117.054 18.494C117.054 19.2142 116.781 19.906 116.289 20.4332ZM124.887 20.375H121.809V23.3902H124.887V20.375Z" fill="white" fill-opacity="0.5"/>
</g>
<defs>
<clipPath id="clip0_272_458">
<rect width="125" height="33" fill="white"/>
</clipPath>
</defs>
</svg>
