<svg width="126" height="35" viewBox="0 0 126 35" fill="none" xmlns="http://www.w3.org/2000/svg">
<path d="M7.41335 25.4795V10.3926H-0.0212402V32.3571C-0.0212402 33.2322 0.689031 33.9425 1.56419 33.9425H18.8855V27.0649H8.99878C8.12363 27.0649 7.41335 26.3547 7.41335 25.4795Z" fill="white"/>
<path d="M22.0531 10.4042V10.3926H13.5034L21.9146 25.0609V33.9425H29.3831V25.0609L37.7943 10.3926H29.3545V15.3772C29.3545 17.3928 27.7205 19.0279 25.7038 19.0279C23.6882 19.0279 22.0531 17.3938 22.0531 15.3772V10.4053" fill="white"/>
<path d="M77.3749 15.355C77.3749 17.3706 75.7409 19.0057 73.7242 19.0057C71.7086 19.0057 70.0735 17.3716 70.0735 15.355V10.3926H62.6389V33.9425H70.0735V28.4083C70.0735 26.3927 71.7076 24.7576 73.7242 24.7576C75.7398 24.7576 77.3749 26.3916 77.3749 28.4083V33.9425H84.8095V10.3926H77.3749V15.355Z" fill="white"/>
<path d="M86.8621 33.9427H105.467V28.3239H95.8779C94.8378 28.3239 93.9944 27.4805 93.9944 26.4404C93.9944 25.4004 94.8378 24.5569 95.8779 24.5569H103.044V19.4434H95.7098C94.7617 19.4434 93.9944 18.675 93.9944 17.728C93.9944 16.7799 94.7628 16.0126 95.7098 16.0126H105.467V10.3938H86.8621V33.9437V33.9427Z" fill="white"/>
<path d="M116.243 16.0106H125.999V10.3918H107.395V33.9418H125.999V28.323H116.411C115.371 28.323 114.527 27.4796 114.527 26.4395C114.527 25.3995 115.371 24.5561 116.411 24.5561H123.577V19.4425H116.243C115.294 19.4425 114.527 18.6741 114.527 17.7271C114.527 16.779 115.295 16.0117 116.243 16.0117V16.0106Z" fill="white"/>
<path d="M51.032 27.6848C50.2361 28.4025 49.2204 28.7619 47.9869 28.7619C46.9997 28.7619 46.1362 28.4987 45.3963 27.9713C44.6564 27.4449 44.0952 26.6923 43.7136 25.7168C43.3321 24.7412 43.1418 23.5923 43.1418 22.2679C43.1418 20.8548 43.3374 19.6499 43.7306 18.6511C44.1227 17.6533 44.6839 16.8902 45.4132 16.3638C46.1415 15.8375 47.0113 15.5732 48.0207 15.5732C48.8726 15.5732 49.6125 15.736 50.2414 16.0615C50.8692 16.3871 51.385 16.8743 51.7888 17.5254C52.1925 18.1765 52.5286 18.9502 52.7981 19.8465H60.0985C60.1514 18.8392 60.0943 16.9758 59.0088 15.123C58.5427 14.3281 58.0449 13.8018 57.7098 13.454C56.5884 12.2882 55.2091 11.3909 53.5718 10.763C51.9346 10.1352 50.1283 9.82129 48.155 9.82129C45.5982 9.82129 43.3384 10.354 41.3757 11.4194C39.4129 12.4848 37.8994 13.9656 36.834 15.8607C35.7685 17.7558 35.2358 19.9035 35.2358 22.3039C35.2358 24.7042 35.7569 26.9249 36.8001 28.7629C37.8433 30.602 39.3347 32.0215 41.2742 33.0192C43.2137 34.017 45.4851 34.5159 48.0873 34.5159C50.0606 34.5159 51.8723 34.202 53.5211 33.5741C54.6098 33.1598 56.2628 32.4939 57.6929 30.9328C59.9093 28.5145 60.1133 25.5149 60.1323 24.4231H52.8996C52.4504 25.8817 51.8279 26.9693 51.032 27.6869V27.6848Z" fill="white"/>
<path d="M56.4687 0.36377H53.1848C52.8096 0.365883 52.4576 0.403934 52.1278 0.469465C47.9783 1.29706 46.0335 6.73507 45.6191 7.97382H56.4687C58.4822 7.97382 60.1152 6.34083 60.1152 4.32734V4.01025C60.1152 1.99676 58.4822 0.36377 56.4687 0.36377Z" fill="white"/>
</svg>
